# xmcd
#
# Track frame offsets:
#        150
#        17490
#        23215
#        36920
#        48792
#        67377
#        83445
#        95792
#        112942
#        122415
#        140167
#        154287
#        164992
#        176975
#        187777
#        207210
#        227815
#        241632
#        252382
#        263192
#        276482
#        288215
#        299812
#        310037
#
# Disc length: 4334 seconds
#
# Revision: 0
# Processed by: cddbd v1.5.1PL0 Copyright (c) Steve Scherf et al.
# Submitted via: ExactAudioCopy v0.95a4
#
DISCID=6510ec18
DTITLE=Various Artist - HARD TRANCE RAVE #02
DYEAR=2004
DGENRE=Trance
TTITLE0=ANTONIA - NO TIME FOR GOODBYES (RADIO CUT)
TTITLE1=RAVE ALLSTARS - HARDCORE FEELINGS (CLUB MIX)
TTITLE2=DEE-JAY CHUCKY - TAKE ME UP
TTITLE3=SONICFIRE - LIKE ONE (S.A.D. MIX)
TTITLE4=AKIRA - PIECE OF HEAVEN (EXTENDED MIX)
TTITLE5=MANGO MANIAX - SHAKE IT! (TABASSCO REMIX)
TTITLE6=DJ LHASA - NO CONTROLES (MABRA EXTENDED MIX)
TTITLE7=ROCCO - DANCECORE
TTITLE8=SPECIAL D - RECKLESS
TTITLE9=SCARF - CHECK THIS (BULLDOZZER REMIX)
TTITLE10=ROCCO - ONE, TWO, THREE
TTITLE11=NONAME - I'M YOUR DJ (WARP BROTHERS REMIX)
TTITLE12=LERSIVA FEAT. K.K. PROJECT - BE A PART OF YOU (ZIGGY X REMIX)
TTITLE13=THE LOVE PARK - BOOM BOOM BOOM (SCOTTY REMIX)
TTITLE14=GENERAL BASE - BASE OF LOVE REBASED (EXTENDED)
TTITLE15=VICIOUS - PFEIFENALARM (BALLOON REMIX)
TTITLE16=COMPUTERLIEBE 7.1 - DAS MODUL VS. E-LOVE (MAXI MIX)
TTITLE17=WELLS and FARGO - NIGHTS IN PALMA (MASTER BLASTER REMIX)
TTITLE18=DYCE - PICTURES LEFT IN THE DARK (CLUB MIX)
TTITLE19=BANANA BOAT SONG - RICK MANIAC DR LOOP (PURSEDRIVER REMIX)
TTITLE20=M-SHAPE - CLOUDLESS SKY (IAN VAN DAHL REMIX)
TTITLE21=LOVESTERN GALAKTIKA PROJECT - SUPERSTAR (DANCE NATION REMIX)
TTITLE22=AXEL COON - LAMENTING CITY (CLUB MIX)
TTITLE23=DJ AIR VS. LYALA - REMEMBER ME (ALEX BARTLETT REMIX)
EXTD=
EXTT0=
EXTT1=
EXTT2=
EXTT3=
EXTT4=
EXTT5=
EXTT6=
EXTT7=
EXTT8=
EXTT9=
EXTT10=
EXTT11=
EXTT12=
EXTT13=
EXTT14=
EXTT15=
EXTT16=
EXTT17=
EXTT18=
EXTT19=
EXTT20=
EXTT21=
EXTT22=
EXTT23=
PLAYORDER=
